<svg width="153" height="45" viewBox="0 0 153 45" fill="none" xmlns="http://www.w3.org/2000/svg">
<path d="M11.0573 34.1717C12.5083 34.1717 13.6845 32.9955 13.6845 31.5445C13.6845 30.0935 12.5083 28.9172 11.0573 28.9172C9.60631 28.9172 8.43005 30.0935 8.43005 31.5445C8.43005 32.9955 9.60631 34.1717 11.0573 34.1717Z" fill="#108775"/>
<path d="M11.0573 20.7389C12.5083 20.7389 13.6845 19.5626 13.6845 18.1116C13.6845 16.6606 12.5083 15.4844 11.0573 15.4844C9.60631 15.4844 8.43005 16.6606 8.43005 18.1116C8.43005 19.5626 9.60631 20.7389 11.0573 20.7389Z" fill="#108775"/>
<path fill-rule="evenodd" clip-rule="evenodd" d="M25.9679 29.6264C25.9679 29.1794 26.3302 28.8171 26.7772 28.8171H26.9559C27.4028 28.8171 27.7651 29.1794 27.7651 29.6264V33.4084C27.7651 33.8553 27.4028 34.2177 26.9559 34.2177H26.7772C26.3302 34.2177 25.9679 33.8553 25.9679 33.4084V29.6264ZM22.3735 29.6264C22.3735 29.1794 22.7358 28.8171 23.1828 28.8171H23.3615C23.8084 28.8171 24.1707 29.1794 24.1707 29.6264V33.4084C24.1707 33.8553 23.8084 34.2177 23.3615 34.2177H23.1828C22.7358 34.2177 22.3735 33.8553 22.3735 33.4084V29.6264ZM25.9679 16.1564C25.9679 15.7095 26.3302 15.3472 26.7772 15.3472H26.9559C27.4028 15.3472 27.7651 15.7095 27.7651 16.1564V19.9385C27.7651 20.3854 27.4028 20.7477 26.9559 20.7477H26.7772C26.3302 20.7477 25.9679 20.3854 25.9679 19.9385V16.1564ZM22.3735 16.1564C22.3735 15.7095 22.7358 15.3472 23.1828 15.3472H23.3615C23.8084 15.3472 24.1707 15.7095 24.1707 16.1564V19.9385C24.1707 20.3854 23.8084 20.7477 23.3615 20.7477H23.1828C22.7358 20.7477 22.3735 20.3854 22.3735 19.9385V16.1564Z" fill="#35495E"/>
<path fill-rule="evenodd" clip-rule="evenodd" d="M16.0549 1.17282C17.5609 0.0492872 19.635 0.0822684 21.1044 1.25311L34.3094 11.7747C35.294 12.5592 35.8676 13.7497 35.8676 15.0087V19.9933C35.8676 20.3692 35.7556 20.7189 35.563 21.0108C35.4801 20.9247 35.3934 20.8421 35.3031 20.7631C34.8537 20.3702 34.3258 20.0775 33.7545 19.9045C33.2401 19.7487 32.701 19.6932 32.1666 19.7403V15.0087C32.1666 14.8765 32.1064 14.7516 32.0031 14.6692L18.7981 4.14763C18.6439 4.02472 18.4261 4.02126 18.2681 4.1392L3.92119 14.8429C3.81137 14.9249 3.74668 15.0538 3.74668 15.1909V22.8177C3.74668 23.0574 3.94102 23.2518 4.18075 23.2518H31.7326C34.0163 23.2518 35.8676 25.1031 35.8676 27.3868V35.6112C35.8676 37.895 34.0163 39.7463 31.7326 39.7463H4.13506C1.85133 39.7463 0 37.895 0 35.6112V30.0454C0 29.709 0.0897297 29.3936 0.246556 29.1219C0.381992 29.2908 0.530631 29.4495 0.691344 29.5963C1.13205 29.9989 1.65344 30.303 2.22082 30.4884C2.69877 30.6446 3.20012 30.7135 3.70099 30.6927V35.6112C3.70099 35.851 3.89533 36.0453 4.13506 36.0453H31.7326C31.9723 36.0453 32.1666 35.851 32.1666 35.6112V27.3868C32.1666 27.1471 31.9723 26.9528 31.7326 26.9528H4.18075C1.89702 26.9528 0.0456913 25.1014 0.0456913 22.8177V15.1909C0.0456913 13.8856 0.661924 12.6571 1.70806 11.8766L16.0549 1.17282Z" fill="#00DC82"/>
<path d="M46.9729 18.7463V5.58318H49.3799L55.5666 14.8538V5.58318H57.9736V18.7463H55.5666L49.3799 9.49452V18.7463H46.9729ZM63.9666 18.972C62.8007 18.972 61.8981 18.6084 61.2588 17.8813C60.6319 17.1542 60.3185 16.0886 60.3185 14.6846V9.4193H62.7067V14.4589C62.7067 15.2612 62.8697 15.8755 63.1956 16.3018C63.5216 16.728 64.0356 16.9411 64.7376 16.9411C65.402 16.9411 65.9474 16.7029 66.3736 16.2265C66.8124 15.7502 67.0318 15.0857 67.0318 14.2333V9.4193H69.4387V18.7463H67.3138L67.1258 17.1668C66.8374 17.7184 66.4175 18.1571 65.8659 18.4831C65.3268 18.809 64.6937 18.972 63.9666 18.972ZM71.0258 18.7463L74.4106 14.0828L71.0258 9.4193H73.602L75.9714 12.7289L78.3219 9.4193H80.917L77.5134 14.0828L80.917 18.7463H78.3219L75.9714 15.4367L73.602 18.7463H71.0258ZM86.6062 18.7463C85.6284 18.7463 84.8449 18.5081 84.2557 18.0318C83.6664 17.5554 83.3718 16.7092 83.3718 15.4932V11.4314H81.7735V9.4193H83.3718L83.6539 6.9183H85.7788V9.4193H88.2986V11.4314H85.7788V15.512C85.7788 15.9633 85.8728 16.2767 86.0609 16.4522C86.2615 16.6152 86.5999 16.6966 87.0763 16.6966H88.2422V18.7463H86.6062Z" fill="#00DC82"/>
<path d="M46.9729 39.7463V26.5832H55.4726V28.52H49.3799V32.2057H54.3067V34.105H49.3799V39.7463H46.9729ZM58.5712 28.9714C58.1324 28.9714 57.7689 28.8397 57.4805 28.5765C57.2047 28.3132 57.0668 27.981 57.0668 27.5798C57.0668 27.1787 57.2047 26.8527 57.4805 26.602C57.7689 26.3387 58.1324 26.2071 58.5712 26.2071C59.01 26.2071 59.3672 26.3387 59.643 26.602C59.9314 26.8527 60.0756 27.1787 60.0756 27.5798C60.0756 27.981 59.9314 28.3132 59.643 28.5765C59.3672 28.8397 59.01 28.9714 58.5712 28.9714ZM57.3677 39.7463V30.4193H59.7747V39.7463H57.3677ZM62.287 39.7463V26.2071H64.694V39.7463H62.287ZM71.6853 39.972C70.7451 39.972 69.9114 39.7714 69.1843 39.3702C68.4572 38.9691 67.8868 38.4049 67.4731 37.6778C67.0594 36.9507 66.8525 36.1108 66.8525 35.158C66.8525 34.1927 67.0531 33.334 67.4543 32.5818C67.868 31.8296 68.4321 31.2467 69.1467 30.833C69.8738 30.4068 70.7262 30.1936 71.7041 30.1936C72.6192 30.1936 73.4278 30.3942 74.1299 30.7954C74.8319 31.1966 75.3772 31.7482 75.7659 32.4502C76.167 33.1397 76.3676 33.9107 76.3676 34.7631C76.3676 34.901 76.3613 35.0452 76.3488 35.1956C76.3488 35.3461 76.3425 35.5028 76.33 35.6658H69.2407C69.2908 36.3929 69.5416 36.9633 69.9929 37.377C70.4567 37.7907 71.0146 37.9975 71.6665 37.9975C72.1554 37.9975 72.5628 37.891 72.8888 37.6778C73.2272 37.4522 73.478 37.1639 73.6409 36.8128H76.0855C75.91 37.402 75.6154 37.9411 75.2017 38.43C74.8006 38.9064 74.2991 39.2825 73.6974 39.5583C73.1082 39.8341 72.4375 39.972 71.6853 39.972ZM71.7041 32.1493C71.1149 32.1493 70.5946 32.3186 70.1433 32.657C69.692 32.983 69.4037 33.4844 69.2783 34.1614H73.923C73.8854 33.5471 73.6598 33.0582 73.2461 32.6946C72.8324 32.3311 72.3184 32.1493 71.7041 32.1493ZM87.4235 39.972C86.4582 39.972 85.6057 39.809 84.8661 39.4831C84.1264 39.1446 83.5435 38.6682 83.1172 38.0539C82.691 37.4271 82.4716 36.6687 82.4591 35.7786H84.9977C85.0228 36.3929 85.2422 36.9131 85.6559 37.3394C86.0821 37.7531 86.665 37.9599 87.4047 37.9599C88.044 37.9599 88.5517 37.8095 88.9278 37.5086C89.3039 37.1952 89.492 36.7815 89.492 36.2675C89.492 35.7284 89.3227 35.3085 88.9843 35.0076C88.6583 34.7067 88.2195 34.4623 87.6679 34.2742C87.1163 34.0862 86.5271 33.8856 85.9003 33.6725C84.8849 33.3215 84.1076 32.8702 83.5686 32.3186C83.042 31.767 82.7788 31.0336 82.7788 30.1184C82.7662 29.3412 82.948 28.6767 83.3241 28.1252C83.7127 27.561 84.2392 27.1285 84.9037 26.8276C85.5681 26.5142 86.3328 26.3575 87.1978 26.3575C88.0754 26.3575 88.8464 26.5142 89.5108 26.8276C90.1877 27.141 90.7143 27.5798 91.0904 28.144C91.479 28.7081 91.6858 29.3788 91.7109 30.156H89.1347C89.1222 29.6922 88.9404 29.2848 88.5894 28.9337C88.2509 28.5702 87.7745 28.3884 87.1602 28.3884C86.6337 28.3759 86.1886 28.5075 85.8251 28.7833C85.4741 29.0466 85.2986 29.4352 85.2986 29.9492C85.2986 30.388 85.4365 30.739 85.7123 31.0022C85.9881 31.253 86.3642 31.4661 86.8405 31.6416C87.3169 31.8171 87.8623 32.0051 88.4765 32.2057C89.1284 32.4314 89.7239 32.6946 90.263 32.9955C90.802 33.2964 91.2345 33.6976 91.5605 34.199C91.8864 34.6879 92.0494 35.321 92.0494 36.0983C92.0494 36.7878 91.8739 37.4271 91.5229 38.0163C91.1718 38.6055 90.6516 39.0819 89.9621 39.4455C89.2726 39.7965 88.4264 39.972 87.4235 39.972ZM98.2489 39.7463C97.271 39.7463 96.4875 39.5081 95.8983 39.0318C95.3091 38.5554 95.0145 37.7092 95.0145 36.4932V32.4314H93.4161V30.4193H95.0145L95.2965 27.9183H97.4215V30.4193H99.9413V32.4314H97.4215V36.512C97.4215 36.9633 97.5155 37.2767 97.7035 37.4522C97.9041 37.6152 98.2426 37.6966 98.719 37.6966H99.8848V39.7463H98.2489ZM106.245 39.972C105.342 39.972 104.527 39.7651 103.8 39.3514C103.085 38.9377 102.515 38.3673 102.089 37.6402C101.675 36.9006 101.468 36.0481 101.468 35.0828C101.468 34.1175 101.681 33.2713 102.108 32.5442C102.534 31.8046 103.104 31.2279 103.819 30.8142C104.546 30.4005 105.361 30.1936 106.263 30.1936C107.153 30.1936 107.956 30.4005 108.67 30.8142C109.397 31.2279 109.968 31.8046 110.382 32.5442C110.808 33.2713 111.021 34.1175 111.021 35.0828C111.021 36.0481 110.808 36.9006 110.382 37.6402C109.968 38.3673 109.397 38.9377 108.67 39.3514C107.943 39.7651 107.135 39.972 106.245 39.972ZM106.245 37.8847C106.871 37.8847 107.417 37.6528 107.881 37.1889C108.344 36.7125 108.576 36.0105 108.576 35.0828C108.576 34.1551 108.344 33.4594 107.881 32.9955C107.417 32.5191 106.878 32.2809 106.263 32.2809C105.624 32.2809 105.072 32.5191 104.609 32.9955C104.157 33.4594 103.932 34.1551 103.932 35.0828C103.932 36.0105 104.157 36.7125 104.609 37.1889C105.072 37.6528 105.618 37.8847 106.245 37.8847ZM113.173 39.7463V30.4193H115.317L115.542 32.1681C115.881 31.5664 116.338 31.09 116.915 30.739C117.504 30.3754 118.194 30.1936 118.984 30.1936V32.7323H118.307C117.78 32.7323 117.31 32.8137 116.896 32.9767C116.483 33.1397 116.157 33.4218 115.918 33.8229C115.693 34.2241 115.58 34.7819 115.58 35.4965V39.7463H113.173ZM123.844 39.972C123.042 39.972 122.384 39.8466 121.87 39.5959C121.356 39.3326 120.973 38.9879 120.723 38.5617C120.472 38.1354 120.347 37.6653 120.347 37.1513C120.347 36.2863 120.685 35.5843 121.362 35.0452C122.039 34.5061 123.055 34.2366 124.408 34.2366H126.778V34.011C126.778 33.3716 126.596 32.9015 126.232 32.6006C125.869 32.2998 125.418 32.1493 124.879 32.1493C124.39 32.1493 123.963 32.2684 123.6 32.5066C123.236 32.7323 123.011 33.0707 122.923 33.522H120.572C120.635 32.8451 120.861 32.2559 121.249 31.7544C121.65 31.253 122.164 30.8706 122.791 30.6073C123.418 30.3315 124.12 30.1936 124.897 30.1936C126.226 30.1936 127.273 30.5259 128.038 31.1903C128.802 31.8547 129.185 32.7949 129.185 34.011V39.7463H127.135L126.909 38.242C126.634 38.7434 126.245 39.1571 125.744 39.4831C125.255 39.809 124.622 39.972 123.844 39.972ZM124.39 38.0915C125.079 38.0915 125.612 37.8659 125.988 37.4146C126.377 36.9633 126.621 36.4054 126.721 35.741H124.672C124.032 35.741 123.575 35.8601 123.299 36.0983C123.023 36.3239 122.885 36.606 122.885 36.9445C122.885 37.308 123.023 37.5901 123.299 37.7907C123.575 37.9913 123.938 38.0915 124.39 38.0915ZM135.431 36.9633C134.979 36.9633 134.559 36.9131 134.171 36.8128L133.475 37.5086C133.688 37.6214 133.976 37.7155 134.34 37.7907C134.704 37.8659 135.293 37.9411 136.108 38.0163C137.349 38.1291 138.251 38.4238 138.815 38.9001C139.38 39.3765 139.662 40.0347 139.662 40.8746C139.662 41.4262 139.511 41.9465 139.21 42.4354C138.909 42.9368 138.446 43.338 137.819 43.6389C137.192 43.9523 136.39 44.109 135.412 44.109C134.083 44.109 133.011 43.8583 132.196 43.3568C131.381 42.8679 130.974 42.1282 130.974 41.1379C130.974 40.2979 131.381 39.5708 132.196 38.9565C131.946 38.8437 131.726 38.7246 131.538 38.5993C131.363 38.4739 131.206 38.3423 131.068 38.2044V37.7719L132.704 36.0418C131.977 35.4025 131.613 34.5814 131.613 33.5785C131.613 32.9516 131.764 32.3812 132.065 31.8672C132.378 31.3533 132.817 30.9458 133.381 30.645C133.945 30.3441 134.628 30.1936 135.431 30.1936C135.957 30.1936 136.446 30.2689 136.897 30.4193H140.433V31.8861L138.834 31.9989C139.085 32.4753 139.21 33.0018 139.21 33.5785C139.21 34.2053 139.06 34.7757 138.759 35.2897C138.458 35.8037 138.019 36.2111 137.443 36.512C136.879 36.8128 136.208 36.9633 135.431 36.9633ZM135.431 35.1204C135.92 35.1204 136.321 34.9888 136.634 34.7255C136.96 34.4623 137.123 34.0862 137.123 33.5973C137.123 33.1083 136.96 32.7323 136.634 32.469C136.321 32.2057 135.92 32.0741 135.431 32.0741C134.917 32.0741 134.503 32.2057 134.19 32.469C133.876 32.7323 133.719 33.1083 133.719 33.5973C133.719 34.0862 133.876 34.4623 134.19 34.7255C134.503 34.9888 134.917 35.1204 135.431 35.1204ZM133.174 40.8934C133.174 41.3573 133.387 41.702 133.813 41.9277C134.252 42.1659 134.785 42.2849 135.412 42.2849C136.014 42.2849 136.503 42.1596 136.879 41.9089C137.255 41.6707 137.443 41.3447 137.443 40.931C137.443 40.5925 137.317 40.3105 137.067 40.0848C136.828 39.8592 136.346 39.7213 135.619 39.6711C135.105 39.6335 134.628 39.5771 134.19 39.5019C133.826 39.7025 133.563 39.9218 133.4 40.16C133.249 40.3982 133.174 40.6427 133.174 40.8934ZM146.352 39.972C145.412 39.972 144.579 39.7714 143.851 39.3702C143.124 38.9691 142.554 38.4049 142.14 37.6778C141.726 36.9507 141.52 36.1108 141.52 35.158C141.52 34.1927 141.72 33.334 142.121 32.5818C142.535 31.8296 143.099 31.2467 143.814 30.833C144.541 30.4068 145.393 30.1936 146.371 30.1936C147.286 30.1936 148.095 30.3942 148.797 30.7954C149.499 31.1966 150.044 31.7482 150.433 32.4502C150.834 33.1397 151.035 33.9107 151.035 34.7631C151.035 34.901 151.028 35.0452 151.016 35.1956C151.016 35.3461 151.01 35.5028 150.997 35.6658H143.908C143.958 36.3929 144.209 36.9633 144.66 37.377C145.124 37.7907 145.682 37.9975 146.334 37.9975C146.823 37.9975 147.23 37.891 147.556 37.6778C147.894 37.4522 148.145 37.1639 148.308 36.8128H150.753C150.577 37.402 150.283 37.9411 149.869 38.43C149.468 38.9064 148.966 39.2825 148.364 39.5583C147.775 39.8341 147.105 39.972 146.352 39.972ZM146.371 32.1493C145.782 32.1493 145.262 32.3186 144.81 32.657C144.359 32.983 144.071 33.4844 143.945 34.1614H148.59C148.553 33.5471 148.327 33.0582 147.913 32.6946C147.499 32.3311 146.985 32.1493 146.371 32.1493Z" fill="white"/>
</svg>
